# xmcd
#
# Track frame offsets:
#	150
#	19865
#	38705
#	58610
#	66557
#	90512
#	113842
#	132812
#	144790
#	162967
#
# Disc length: 2593 seconds
#
# Revision: 59
# Processed by: cddbd v1.5.2PL0 Copyright (c) Steve Scherf et al.
# Submitted via: audiograbber 1.83.01
#
DISCID=800a1f0a
DTITLE=Michael, George - Songs from the last century
DYEAR=1999
DGENRE=Pop
TTITLE0=Brother can you spare a dime
TTITLE1=Roxanne
TTITLE2=You've changed
TTITLE3=My baby just cares for me
TTITLE4=The first time ever I saw your face
TTITLE5=Miss Sarajevo
TTITLE6=I remember you
TTITLE7=Secret love
TTITLE8=Wild is the wind
TTITLE9=Where or when
EXTD=
EXTT0=
EXTT1=
EXTT2=
EXTT3=
EXTT4=
EXTT5=
EXTT6=
EXTT7=
EXTT8=
EXTT9=
PLAYORDER=
